<svg width="16" height="20" viewBox="0 0 16 20" fill="none" xmlns="http://www.w3.org/2000/svg">
<path d="M11.5931 6.96582C11.5931 5.44291 10.6284 4.42036 9.1965 4.42036H5.9465V9.51127H9.1965C10.6284 9.51127 11.5931 8.48873 11.5931 6.96582ZM14 6.96582C14 9.88655 12.1111 11.9316 9.3993 11.9316H5.94585V13.2727H11.075C11.2576 13.2727 11.4 13.432 11.4 13.6364V15.0909C11.4 15.2953 11.2576 15.4545 11.075 15.4545H5.94585V17.6364C5.94585 17.8407 5.8035 18 5.62085 18H3.925C3.74235 18 3.6 17.8407 3.6 17.6364V15.4545H1.325C1.14235 15.4545 1 15.2953 1 15.0909V13.6364C1 13.432 1.14235 13.2727 1.325 13.2727H3.6V11.9316H1.325C1.14235 11.9316 1 11.7724 1 11.568V9.87491C1 9.67055 1.14235 9.51127 1.325 9.51127H3.6V2.36364C3.6 2.15927 3.74235 2 3.925 2H9.3993C12.1111 2 14 4.04509 14 6.96582V6.96582Z" fill="white"/>
</svg>
